<svg width="60" height="60" viewBox="0 0 60 60" fill="none" xmlns="http://www.w3.org/2000/svg">
<path d="M21.25 10H15C12.2386 10 10 12.2386 10 15V50C10 52.7615 12.2386 55 15 55H45C47.7615 55 50 52.7615 50 50V15C50 12.2386 47.7615 10 45 10H38.75" stroke="#FFFCFA" stroke-width="3" stroke-linecap="round"/>
<path d="M20 16V11.25C20 10.5596 20.5596 10 21.25 10C21.9404 10 22.5106 9.4401 22.6288 8.75995C22.9992 6.62927 24.435 2.5 30 2.5C35.565 2.5 37.0007 6.62927 37.3712 8.75995C37.4895 9.4401 38.0597 10 38.75 10C39.4403 10 40 10.5596 40 11.25V16C40 16.8284 39.3285 17.5 38.5 17.5H21.5C20.6716 17.5 20 16.8284 20 16Z" stroke="#FFFCFA" stroke-width="3" stroke-linecap="round"/>
</svg>
