<svg width="16" height="16" viewBox="0 0 16 16" fill="none" xmlns="http://www.w3.org/2000/svg">
<path d="M13.3333 7.33333C13.3333 4.38781 10.9455 2 7.99996 2C5.05444 2 2.66663 4.38781 2.66663 7.33333" stroke="#502366" stroke-width="1.5" stroke-linecap="round" stroke-linejoin="round"/>
<path d="M1.33337 10.2921V9.04093C1.33337 8.42906 1.74977 7.89579 2.34333 7.74739L3.50303 7.45746C3.75549 7.39433 4.00004 7.58526 4.00004 7.84553V11.4875C4.00004 11.7478 3.75549 11.9387 3.50303 11.8756L2.34333 11.5857C1.74977 11.4373 1.33337 10.904 1.33337 10.2921Z" stroke="#502366" stroke-width="1.5"/>
<path d="M14.6667 10.2921V9.04093C14.6667 8.42906 14.2503 7.89579 13.6567 7.74739L12.497 7.45746C12.2445 7.39433 12 7.58526 12 7.84553V11.4875C12 11.7478 12.2445 11.9387 12.497 11.8756L13.6567 11.5857C14.2503 11.4373 14.6667 10.904 14.6667 10.2921Z" stroke="#502366" stroke-width="1.5"/>
<path d="M13.3333 12V12.3333C13.3333 13.0697 12.7364 13.6667 12 13.6667H9.66663" stroke="#502366" stroke-width="1.5"/>
<path d="M9 14.6665H7C6.44771 14.6665 6 14.2188 6 13.6665C6 13.1142 6.44771 12.6665 7 12.6665H9C9.55227 12.6665 10 13.1142 10 13.6665C10 14.2188 9.55227 14.6665 9 14.6665Z" stroke="#502366" stroke-width="1.5"/>
</svg>
